<?xml version="1.0" standalone="no"?><!DOCTYPE svg PUBLIC "-//W3C//DTD SVG 1.1//EN" "http://www.w3.org/Graphics/SVG/1.1/DTD/svg11.dtd"><svg t="1587971467263" class="icon" viewBox="0 0 1024 1024" version="1.1" xmlns="http://www.w3.org/2000/svg" p-id="2142" xmlns:xlink="http://www.w3.org/1999/xlink" width="200" height="200"><defs><style type="text/css"></style></defs><path d="M510.964926 63.811328c-127.067001 2.704598-233.408981 46.907333-317.233108 130.822534C109.909737 278.547017 65.752028 385.002584 63.051523 512.208754c2.700505 127.20617 46.858214 232.782717 130.680295 316.695872 83.824127 83.916225 190.165084 128.118959 317.233108 130.823558 127.102816-2.704598 232.533031-46.907333 316.355111-130.823558 80.381725-80.500429 124.301004-180.904163 130.139989-301.251112l0-30.889521c-5.838985-120.311133-49.758264-220.750683-130.139989-301.218366C743.497956 110.718661 634.36542 66.436108 510.964926 63.811328L510.964926 63.811328zM786.588357 778.490423c-21.893636-10.499122-45.493124-21.884426-69.124334-24.509207-62.142316-5.28333-100.621698-14.896268-115.500571-29.79356-13.994736-14.895245-20.12434-35.927257-17.502629-63.061244 0.886183-16.635889 5.246491-26.282596 14.881942-30.67872 9.602705-4.363378 20.122293-28.90533 30.611182-72.67623 3.508917-13.156648 7.013741-23.657816 11.373025-31.564903 4.39203-7.875365 11.373025-24.51023 20.125363-51.676963 4.39203-19.260669 4.39203-30.645974-0.853437-33.270754-5.276167-2.623757-8.750291-3.510964-9.636474-2.623757l4.360308-19.293415c2.62171-12.238742 4.39203-27.133987 6.129604-43.769876 5.242398-43.802622-3.508917-81.4695-26.254967-113.000634-22.745027-32.417317-64.73128-49.052183-126.873596-50.824549-55.129598 0.88516-84.003206 22.803355-116.354008 49.937342-35.889395 28.021194-48.14758 65.688071-38.511105 113.886817 7.013741 35.896558 17.501606 65.688071 10.487865 63.063291-0.852414-0.886183-4.360308 0-8.751315 2.623757-4.359284 2.62478-5.244444 14.010085-1.736551 33.270754 9.636474 23.656793 16.616446 40.292682 21.859867 49.052183 5.27719 8.761548 8.751315 20.146852 11.373025 34.189683 8.78406 42.916439 17.502629 66.573231 27.139104 70.935586 9.636474 4.365424 15.766079 15.750729 19.23918 32.419364 4.39203 27.133987-0.852414 48.165999-16.617469 63.061244-15.732309 14.898315-53.358255 24.51023-112.87886 29.759791-21.86089 2.659573-48.114834 13.157671-69.12331 23.657816-67.355037-70.051449-106.751303-162.907277-107.635439-265.408789 2.654456-108.60451 40.280402-198.835557 112.87886-271.544533 72.632227-72.709999 162.764014-110.344131 271.251867-113.001657 108.519576 2.657526 198.621686 40.291658 270.399453 113.001657 72.632227 72.708975 110.224404 162.940023 112.845091 271.544533C893.33966 616.436584 853.943394 709.292412 786.588357 778.490423L786.588357 778.490423z" p-id="2143" fill="#8a8a8a"></path></svg>